<svg xmlns="http://www.w3.org/2000/svg" fill="#3ba9ee" width="335" height="276"><rect id="backgroundrect" width="100%" height="100%" x="0" y="0" fill="none" stroke="none"/>
  
<g class="currentLayer" style=""><title>Layer 1</title><path d="m302 70a195 195 0 0 1 -299 175 142 142 0 0 0 97 -30 70 70 0 0 1 -58 -47 70 70 0 0 0 31 -2 70 70 0 0 1 -57 -66 70 70 0 0 0 28 5 70 70 0 0 1 -18 -90 195 195 0 0 0 141 72 67 67 0 0 1 116 -62 117 117 0 0 0 43 -17 65 65 0 0 1 -31 38 117 117 0 0 0 39 -11 65 65 0 0 1 -32 35" id="svg_1" class="" fill="#ffffff" fill-opacity="1"/></g></svg>